<?xml version="1.0" encoding="UTF-8" standalone="no"?>
<!-- Created with Inkscape (http://www.inkscape.org/) -->

<svg
   width="105mm"
   height="44mm"
   viewBox="0 0 105 44"
   version="1.1"
   id="svg5"
   inkscape:version="1.1 (c4e8f9ed74, 2021-05-24)"
   sodipodi:docname="logo.svg"
   xmlns:inkscape="http://www.inkscape.org/namespaces/inkscape"
   xmlns:sodipodi="http://sodipodi.sourceforge.net/DTD/sodipodi-0.dtd"
   xmlns="http://www.w3.org/2000/svg"
   xmlns:svg="http://www.w3.org/2000/svg">
  <sodipodi:namedview
     id="namedview7"
     pagecolor="#ffffff"
     bordercolor="#666666"
     borderopacity="1.0"
     inkscape:pageshadow="2"
     inkscape:pageopacity="0.0"
     inkscape:pagecheckerboard="0"
     inkscape:document-units="mm"
     showgrid="false"
     width="101mm"
     inkscape:zoom="0.64"
     inkscape:cx="182.8125"
     inkscape:cy="-69.53125"
     inkscape:window-width="1366"
     inkscape:window-height="720"
     inkscape:window-x="1280"
     inkscape:window-y="23"
     inkscape:window-maximized="1"
     inkscape:current-layer="layer1" />
  <defs
     id="defs2" />
  <g
     inkscape:label="Layer 1"
     inkscape:groupmode="layer"
     id="layer1">
    <g
       aria-label="Redux "
       id="text2492"
       style="font-size:17.6678px;line-height:1.25;stroke-width:0.441695"
       transform="matrix(0.92212352,0,0,0.92212352,2.0813178,1.8526887)">
      <g
         aria-label="ts-react-redux-toolkit-template"
         id="text1872"
         style="font-size:6.12114px;stroke-width:0.093244">
        <path
           d="m 4.606354,33.317832 -0.048969,-0.250967 c -1.2793182,0.434601 -1.487437,0.201998 -1.3344085,-0.465206 l 0.3550261,-1.579254 h 1.1691378 l 0.073454,-0.37339 H 3.6636985 L 3.859575,29.773692 3.4923066,29.804298 3.0209788,30.649015 H 2.635347 l -0.097938,0.37339 h 0.569266 l -0.3550261,1.603738 c -0.2264822,0.979383 0.2938147,1.481316 1.8547054,0.691689 z"
           style="font-style:italic;font-weight:300;font-family:'Operator Mono Lig';-inkscape-font-specification:'Operator Mono Lig weight=325 Italic';fill:#4d4d4d"
           id="path827" />
        <path
           d="m 7.9974611,32.840383 c 0,-0.508055 -0.6427197,-1.040594 -0.8324751,-1.518043 0.5019335,-0.569266 0.4223587,-0.936534 0.079575,-0.936534 -0.306057,0 -0.6365985,0.355026 -0.6365985,0.722294 0,0.09182 0.012242,0.177514 0.036727,0.263209 -0.2081187,0.226483 -0.526418,0.477449 -1.0405938,0.832476 l 0.128544,0.220361 c 0.440722,-0.263209 0.789627,-0.514176 1.052836,-0.740658 0.2693302,0.459085 0.740658,0.856959 0.740658,1.187501 0,0.287693 -0.2999359,0.477449 -1.6221021,0.367268 l -0.012242,0.440722 c 1.6588289,0.0857 2.1056722,-0.361147 2.1056722,-0.838596 z"
           style="font-style:italic;font-weight:300;font-family:'Operator Mono Lig';-inkscape-font-specification:'Operator Mono Lig weight=325 Italic';fill:#4d4d4d"
           id="path829" />
        <path
           d="M 11.180449,31.634519 H 9.3624707 l -0.079575,0.416237 h 1.8241001 z"
           style="font-style:italic;font-weight:300;font-family:'Operator Mono Lig';-inkscape-font-specification:'Operator Mono Lig weight=325 Italic';fill:#4d4d4d"
           id="path831" />
        <path
           d="m 15.000036,33.458618 -0.04285,-0.257088 c -0.918171,0.299936 -1.101806,0.116302 -0.03673,-2.479061 l -0.226482,-0.128544 c -0.391753,0.177513 -0.844718,0.299936 -1.218107,0.342784 0.02448,-0.0857 0.03673,-0.165271 0.03673,-0.238725 0,-0.171392 -0.09182,-0.26933 -0.232604,-0.26933 -0.293814,0 -0.599871,0.336663 -0.599871,0.587629 0,0.146908 0.116301,0.238725 0.299935,0.281573 -0.177513,0.385632 -0.440722,0.7529 -0.814111,1.199743 l 0.189755,0.177513 c 0.397874,-0.422358 0.759022,-0.918171 0.96714,-1.34665 0.287694,-0.0061 0.630478,-0.06733 0.96714,-0.165271 -1.046715,2.436213 -0.612114,2.883057 0.710053,2.295427 z"
           style="font-style:italic;font-weight:300;font-family:'Operator Mono Lig';-inkscape-font-specification:'Operator Mono Lig weight=325 Italic';fill:#4d4d4d"
           id="path833" />
        <path
           d="m 18.140176,33.293347 -0.06121,-0.250966 c -1.389499,0.459085 -1.971007,0.257088 -1.971007,-0.532539 v -0.0061 c 1.407862,-0.104059 2.197489,-0.526418 2.197489,-1.224228 0,-0.440722 -0.32442,-0.716173 -0.850838,-0.716173 -1.034473,0 -1.811858,1.058957 -1.811858,2.007734 0,1.003867 0.869202,1.554769 2.497425,0.722294 z m -0.801869,-2.332154 c 0.312178,0 0.508055,0.165271 0.508055,0.410116 0,0.501934 -0.673326,0.777385 -1.71392,0.850839 0.10406,-0.636599 0.557024,-1.260955 1.205865,-1.260955 z"
           style="font-style:italic;font-weight:300;font-family:'Operator Mono Lig';-inkscape-font-specification:'Operator Mono Lig weight=325 Italic';fill:#4d4d4d"
           id="path835" />
        <path
           d="m 19.811244,33.250499 c -0.220362,0 -0.391753,-0.177513 -0.391753,-0.599871 0,-0.838596 0.48357,-1.66495 1.083441,-1.66495 0.140787,0 0.355026,0.03061 0.575388,0.09794 -0.09182,0.465207 -0.257088,1.303803 -0.3183,1.615981 -0.299936,0.299936 -0.691689,0.550902 -0.948776,0.550902 z m 1.958764,0.15915 -0.04897,-0.244845 c -0.575387,0.214239 -0.612114,0.116301 -0.526418,-0.306057 l 0.422359,-2.154642 c -0.312178,-0.0857 -0.599872,-0.128544 -0.85696,-0.128544 -1.083442,0 -1.824099,1.065079 -1.824099,2.185247 0,0.630478 0.26933,0.936535 0.636598,0.936535 0.342784,0 0.777385,-0.287694 1.138532,-0.64272 -0.07345,0.630477 0.165271,0.881444 1.058957,0.355026 z"
           style="font-style:italic;font-weight:300;font-family:'Operator Mono Lig';-inkscape-font-specification:'Operator Mono Lig weight=325 Italic';fill:#4d4d4d"
           id="path837" />
        <path
           d="m 25.014207,31.591671 c 0.03061,-0.722295 -0.226483,-1.022231 -0.789628,-1.022231 -0.96714,0 -1.799615,0.942656 -1.799615,1.989371 0,0.997745 0.832475,1.542527 2.381124,0.789627 l -0.06121,-0.257088 c -1.279318,0.403995 -1.842463,0.171392 -1.842463,-0.612114 0,-0.795748 0.538661,-1.499679 1.199744,-1.499679 0.32442,0 0.465206,0.159149 0.471327,0.612114 z"
           style="font-style:italic;font-weight:300;font-family:'Operator Mono Lig';-inkscape-font-specification:'Operator Mono Lig weight=325 Italic';fill:#4d4d4d"
           id="path839" />
        <path
           d="m 28.172711,33.317832 -0.04897,-0.250967 c -1.279319,0.434601 -1.487437,0.201998 -1.334409,-0.465206 l 0.355026,-1.579254 h 1.169138 l 0.07345,-0.37339 h -1.156896 l 0.195877,-0.875323 -0.367269,0.03061 -0.471328,0.844717 h -0.385631 l -0.09794,0.37339 h 0.569266 l -0.355026,1.603738 c -0.226482,0.979383 0.293815,1.481316 1.854706,0.691689 z"
           style="font-style:italic;font-weight:300;font-family:'Operator Mono Lig';-inkscape-font-specification:'Operator Mono Lig weight=325 Italic';fill:#4d4d4d"
           id="path841" />
        <path
           d="m 31.380184,31.634519 h -1.817979 l -0.07957,0.416237 h 1.824099 z"
           style="font-style:italic;font-weight:300;font-family:'Operator Mono Lig';-inkscape-font-specification:'Operator Mono Lig weight=325 Italic';fill:#4d4d4d"
           id="path843" />
        <path
           d="m 35.199771,33.458618 -0.04285,-0.257088 c -0.918171,0.299936 -1.101805,0.116302 -0.03673,-2.479061 l -0.226482,-0.128544 c -0.391753,0.177513 -0.844717,0.299936 -1.218107,0.342784 0.02448,-0.0857 0.03673,-0.165271 0.03673,-0.238725 0,-0.171392 -0.09182,-0.26933 -0.232603,-0.26933 -0.293815,0 -0.599872,0.336663 -0.599872,0.587629 0,0.146908 0.116302,0.238725 0.299936,0.281573 -0.177513,0.385632 -0.440722,0.7529 -0.814112,1.199743 l 0.189756,0.177513 c 0.397874,-0.422358 0.759021,-0.918171 0.96714,-1.34665 0.287693,-0.0061 0.630477,-0.06733 0.96714,-0.165271 -1.046715,2.436213 -0.612114,2.883057 0.710052,2.295427 z"
           style="font-style:italic;font-weight:300;font-family:'Operator Mono Lig';-inkscape-font-specification:'Operator Mono Lig weight=325 Italic';fill:#4d4d4d"
           id="path845" />
        <path
           d="m 38.339912,33.293347 -0.06121,-0.250966 c -1.389499,0.459085 -1.971007,0.257088 -1.971007,-0.532539 v -0.0061 c 1.407862,-0.104059 2.197489,-0.526418 2.197489,-1.224228 0,-0.440722 -0.324421,-0.716173 -0.850839,-0.716173 -1.034472,0 -1.811857,1.058957 -1.811857,2.007734 0,1.003867 0.869202,1.554769 2.497425,0.722294 z m -0.801869,-2.332154 c 0.312178,0 0.508054,0.165271 0.508054,0.410116 0,0.501934 -0.673325,0.777385 -1.713919,0.850839 0.104059,-0.636599 0.557024,-1.260955 1.205865,-1.260955 z"
           style="font-style:italic;font-weight:300;font-family:'Operator Mono Lig';-inkscape-font-specification:'Operator Mono Lig weight=325 Italic';fill:#4d4d4d"
           id="path847" />
        <path
           d="m 40.035464,33.250499 c -0.238725,0 -0.422359,-0.214239 -0.422359,-0.667204 0,-0.80799 0.48357,-1.615981 1.077321,-1.615981 0.140786,0 0.361147,0.03673 0.59375,0.10406 l -0.32442,1.652707 c -0.281573,0.293815 -0.654962,0.526418 -0.924292,0.526418 z m 1.958765,0.153029 -0.05509,-0.238724 c -0.581508,0.220361 -0.618235,0.122422 -0.532539,-0.3183 l 0.685568,-3.513534 -0.477449,0.03673 -0.238725,1.23647 c -0.16527,-0.02448 -0.312178,-0.03673 -0.446843,-0.03673 -1.065078,0 -1.793494,1.034473 -1.793494,2.136278 0,0.661083 0.287694,0.991625 0.667204,0.991625 0.336663,0 0.765143,-0.26933 1.107927,-0.612114 -0.06121,0.605993 0.189755,0.838596 1.083442,0.318299 z"
           style="font-style:italic;font-weight:300;font-family:'Operator Mono Lig';-inkscape-font-specification:'Operator Mono Lig weight=325 Italic';fill:#4d4d4d"
           id="path849" />
        <path
           d="M 45.37309,33.409649 45.318,33.164804 c -0.544782,0.220361 -0.575388,0.116301 -0.489692,-0.306057 l 0.434601,-2.221974 h -0.465206 l -0.379511,1.952643 c -0.379511,0.440722 -0.691689,0.661083 -0.96714,0.661083 -0.263209,0 -0.379511,-0.201997 -0.263209,-0.722294 l 0.42848,-1.909796 -0.477449,0.03061 -0.459086,0.7529 0.263209,0.15915 -0.226482,1.016109 c -0.177513,0.771264 0.04897,1.12629 0.495812,1.12629 0.361148,0 0.722295,-0.238725 1.12629,-0.703931 -0.11018,0.69781 0.140786,0.930413 1.034473,0.410116 z"
           style="font-style:italic;font-weight:300;font-family:'Operator Mono Lig';-inkscape-font-specification:'Operator Mono Lig weight=325 Italic';fill:#4d4d4d"
           id="path851" />
        <path
           d="m 47.803178,33.648374 0.526418,-0.03061 -0.789627,-1.487437 1.377257,-1.493558 h -0.520297 l -1.089563,1.218107 -0.654962,-1.23035 -0.520297,0.03061 0.789627,1.481316 -1.377256,1.499679 h 0.520297 l 1.095684,-1.218107 z"
           style="font-style:italic;font-weight:300;font-family:'Operator Mono Lig';-inkscape-font-specification:'Operator Mono Lig weight=325 Italic';fill:#4d4d4d"
           id="path853" />
        <path
           d="m 51.579918,31.634519 h -1.817979 l -0.07957,0.416237 h 1.8241 z"
           style="font-style:italic;font-weight:300;font-family:'Operator Mono Lig';-inkscape-font-specification:'Operator Mono Lig weight=325 Italic';fill:#4d4d4d"
           id="path855" />
        <path
           d="m 55.10569,33.317832 -0.04897,-0.250967 c -1.279318,0.434601 -1.487437,0.201998 -1.334408,-0.465206 l 0.355026,-1.579254 h 1.169138 l 0.07345,-0.37339 h -1.156895 l 0.195876,-0.875323 -0.367268,0.03061 -0.471328,0.844717 h -0.385632 l -0.09794,0.37339 h 0.569266 l -0.355026,1.603738 c -0.226482,0.979383 0.293815,1.481316 1.854705,0.691689 z"
           style="font-style:italic;font-weight:300;font-family:'Operator Mono Lig';-inkscape-font-specification:'Operator Mono Lig weight=325 Italic';fill:#4d4d4d"
           id="path857" />
        <path
           d="m 55.993252,32.485357 c 0,0.789627 0.428479,1.218107 1.095684,1.218107 0.905928,0 1.615981,-0.850839 1.615981,-1.915917 0,-0.789627 -0.440723,-1.224228 -1.101806,-1.224228 -0.91205,0 -1.609859,0.869202 -1.609859,1.922038 z m 2.221973,-0.630477 c 0,0.777384 -0.428479,1.45071 -1.046715,1.45071 -0.440722,0 -0.691688,-0.324421 -0.691688,-0.887566 0,-0.771263 0.422358,-1.456831 1.046715,-1.456831 0.440722,0 0.691688,0.330542 0.691688,0.893687 z"
           style="font-style:italic;font-weight:300;font-family:'Operator Mono Lig';-inkscape-font-specification:'Operator Mono Lig weight=325 Italic';fill:#4d4d4d"
           id="path859" />
        <path
           d="m 59.359874,32.485357 c 0,0.789627 0.42848,1.218107 1.095684,1.218107 0.905929,0 1.615981,-0.850839 1.615981,-1.915917 0,-0.789627 -0.440722,-1.224228 -1.101805,-1.224228 -0.91205,0 -1.60986,0.869202 -1.60986,1.922038 z m 2.221974,-0.630477 c 0,0.777384 -0.42848,1.45071 -1.046715,1.45071 -0.440722,0 -0.691689,-0.324421 -0.691689,-0.887566 0,-0.771263 0.422359,-1.456831 1.046715,-1.456831 0.440723,0 0.691689,0.330542 0.691689,0.893687 z"
           style="font-style:italic;font-weight:300;font-family:'Operator Mono Lig';-inkscape-font-specification:'Operator Mono Lig weight=325 Italic';fill:#4d4d4d"
           id="path861" />
        <path
           d="m 65.230044,33.238257 -0.09182,-0.244845 c -0.930414,0.446843 -1.420105,0.422358 -1.487437,-0.348905 1.420104,-1.01611 2.007733,-1.964886 2.007733,-2.693302 0,-0.403995 -0.214239,-0.636599 -0.575387,-0.636599 -0.86308,0 -1.922038,1.567012 -1.922038,3.231962 0,0.02448 0,0.05509 0,0.07957 -0.134665,0.09182 -0.336662,0.220361 -0.391753,0.257088 l 0.128544,0.220361 c 0.03673,-0.02448 0.171392,-0.11018 0.293815,-0.183634 0.146907,0.91205 0.899808,0.997746 2.03834,0.318299 z m -0.312179,-3.452323 c 0.171392,0 0.287694,0.122423 0.287694,0.367269 0,0.501933 -0.422359,1.267076 -1.560891,2.160762 0.04897,-1.34053 0.759022,-2.528031 1.273197,-2.528031 z"
           style="font-style:italic;font-weight:300;font-family:'Operator Mono Lig';-inkscape-font-specification:'Operator Mono Lig weight=325 Italic';fill:#4d4d4d"
           id="path863" />
        <path
           d="m 68.229398,33.672858 0.544782,-0.07345 -1.083442,-1.193622 c 0.887565,-0.477449 1.230349,-0.936534 1.230349,-1.334408 0,-0.299936 -0.201998,-0.501934 -0.557024,-0.501934 -0.385632,0 -0.875323,0.244846 -1.346651,0.722295 l 0.379511,-1.958765 -0.477449,0.03673 -0.826354,4.266434 h 0.471328 l 0.37339,-1.928159 c 0.452964,-0.459085 0.875323,-0.69781 1.175258,-0.69781 0.183635,0 0.293815,0.09182 0.293815,0.257088 0,0.257088 -0.287693,0.64272 -1.279318,1.156896 z"
           style="font-style:italic;font-weight:300;font-family:'Operator Mono Lig';-inkscape-font-specification:'Operator Mono Lig weight=325 Italic';fill:#4d4d4d"
           id="path865" />
        <path
           d="m 71.394023,30.122597 0.244846,-0.820233 -0.550903,0.03061 -0.189755,0.814111 z m 0.630478,3.244204 -0.05509,-0.263209 c -1.236471,0.312178 -1.39562,0.195877 -1.254834,-0.355026 l 0.550903,-2.105672 -0.422359,-0.0061 -1.260955,0.312178 0.03061,0.257088 1.083441,-0.146908 -0.465206,1.76901 c -0.232603,0.875323 0.281572,1.156895 1.793494,0.53866 z"
           style="font-style:italic;font-weight:300;font-family:'Operator Mono Lig';-inkscape-font-specification:'Operator Mono Lig weight=325 Italic';fill:#4d4d4d"
           id="path867" />
        <path
           d="m 75.305428,33.317832 -0.04897,-0.250967 c -1.279319,0.434601 -1.487437,0.201998 -1.334409,-0.465206 l 0.355026,-1.579254 h 1.169138 l 0.07345,-0.37339 h -1.156896 l 0.195877,-0.875323 -0.367269,0.03061 -0.471327,0.844717 h -0.385632 l -0.09794,0.37339 h 0.569266 l -0.355027,1.603738 c -0.226482,0.979383 0.293815,1.481316 1.854706,0.691689 z"
           style="font-style:italic;font-weight:300;font-family:'Operator Mono Lig';-inkscape-font-specification:'Operator Mono Lig weight=325 Italic';fill:#4d4d4d"
           id="path869" />
        <path
           d="m 78.512901,31.634519 h -1.817978 l -0.07958,0.416237 h 1.824099 z"
           style="font-style:italic;font-weight:300;font-family:'Operator Mono Lig';-inkscape-font-specification:'Operator Mono Lig weight=325 Italic';fill:#4d4d4d"
           id="path871" />
        <path
           d="m 82.038674,33.317832 -0.04897,-0.250967 c -1.279319,0.434601 -1.487437,0.201998 -1.334409,-0.465206 l 0.355026,-1.579254 h 1.169138 l 0.07345,-0.37339 h -1.156896 l 0.195877,-0.875323 -0.367269,0.03061 -0.471328,0.844717 h -0.385631 l -0.09794,0.37339 h 0.569266 l -0.355026,1.603738 c -0.226482,0.979383 0.293815,1.481316 1.854706,0.691689 z"
           style="font-style:italic;font-weight:300;font-family:'Operator Mono Lig';-inkscape-font-specification:'Operator Mono Lig weight=325 Italic';fill:#4d4d4d"
           id="path873" />
        <path
           d="m 85.472622,33.293347 -0.06121,-0.250966 c -1.389499,0.459085 -1.971007,0.257088 -1.971007,-0.532539 v -0.0061 c 1.407862,-0.104059 2.197489,-0.526418 2.197489,-1.224228 0,-0.440722 -0.32442,-0.716173 -0.850838,-0.716173 -1.034473,0 -1.811858,1.058957 -1.811858,2.007734 0,1.003867 0.869202,1.554769 2.497426,0.722294 z m -0.80187,-2.332154 c 0.312178,0 0.508055,0.165271 0.508055,0.410116 0,0.501934 -0.673326,0.777385 -1.713919,0.850839 0.104059,-0.636599 0.557023,-1.260955 1.205864,-1.260955 z"
           style="font-style:italic;font-weight:300;font-family:'Operator Mono Lig';-inkscape-font-specification:'Operator Mono Lig weight=325 Italic';fill:#4d4d4d"
           id="path875" />
        <path
           d="m 89.182028,33.507587 -0.06121,-0.250966 c -0.257088,0.09794 -0.324421,0.07957 -0.324421,-0.03673 0,-0.324421 0.440723,-1.652708 0.440723,-2.221974 0,-0.281572 -0.128544,-0.42848 -0.355027,-0.42848 -0.226482,0 -0.508054,0.165271 -0.801869,0.489691 0.01836,-0.318299 -0.104059,-0.489691 -0.336663,-0.489691 -0.201997,0 -0.452964,0.146908 -0.722294,0.446843 0.02448,-0.134665 0.04897,-0.312178 0.05509,-0.391753 l -0.434601,0.03061 c -0.146907,0.881444 -0.275451,1.55477 -0.557024,2.980995 h 0.459086 c 0.09794,-0.495812 0.312178,-1.597617 0.434601,-2.270943 0.220361,-0.226482 0.410116,-0.336662 0.544781,-0.336662 0.171392,0 0.183635,0.183634 0.122423,0.489691 l -0.416237,2.117914 h 0.373389 l 0.440722,-2.264822 c 0.220361,-0.232603 0.416238,-0.342783 0.550903,-0.342783 0.11018,0 0.153028,0.07957 0.153028,0.208118 0,0.440722 -0.416237,1.762889 -0.416237,2.173005 0,0.324421 0.257088,0.391753 0.850838,0.09794 z"
           style="font-style:italic;font-weight:300;font-family:'Operator Mono Lig';-inkscape-font-specification:'Operator Mono Lig weight=325 Italic';fill:#4d4d4d"
           id="path877" />
        <path
           d="m 90.804126,33.299469 c -0.146907,0 -0.367268,-0.03673 -0.605993,-0.10406 0.128544,-0.661083 0.250967,-1.322166 0.306057,-1.615981 0.293815,-0.299936 0.69781,-0.563145 0.973262,-0.563145 0.238724,0 0.42848,0.21424 0.42848,0.673326 0,0.80799 -0.483571,1.60986 -1.101806,1.60986 z m -0.893686,1.377256 c 0.04897,-0.238724 0.116302,-0.612114 0.195876,-1.016109 0.165271,0.03061 0.3183,0.04285 0.459086,0.04285 1.07732,0 1.811857,-1.034473 1.811857,-2.136278 0,-0.667204 -0.293814,-1.003867 -0.673325,-1.003867 -0.348905,0 -0.789627,0.293815 -1.144653,0.648841 0.03673,-0.21424 0.07958,-0.501934 0.09182,-0.593751 l -0.459086,0.03061 c -0.153028,0.991625 -0.367268,2.062824 -0.7529,4.064437 z"
           style="font-style:italic;font-weight:300;font-family:'Operator Mono Lig';-inkscape-font-specification:'Operator Mono Lig weight=325 Italic';fill:#4d4d4d"
           id="path879" />
        <path
           d="m 95.529642,33.238257 -0.09182,-0.244845 c -0.930413,0.446843 -1.420104,0.422358 -1.487437,-0.348905 1.420105,-1.01611 2.007734,-1.964886 2.007734,-2.693302 0,-0.403995 -0.21424,-0.636599 -0.575387,-0.636599 -0.863081,0 -1.922038,1.567012 -1.922038,3.231962 0,0.02448 0,0.05509 0,0.07957 -0.134665,0.09182 -0.336663,0.220361 -0.391753,0.257088 l 0.128544,0.220361 c 0.03673,-0.02448 0.171392,-0.11018 0.293815,-0.183634 0.146907,0.91205 0.899807,0.997746 2.038339,0.318299 z m -0.312178,-3.452323 c 0.171392,0 0.287694,0.122423 0.287694,0.367269 0,0.501933 -0.422359,1.267076 -1.560891,2.160762 0.04897,-1.34053 0.759021,-2.528031 1.273197,-2.528031 z"
           style="font-style:italic;font-weight:300;font-family:'Operator Mono Lig';-inkscape-font-specification:'Operator Mono Lig weight=325 Italic';fill:#4d4d4d"
           id="path881" />
        <path
           d="m 97.243557,33.250499 c -0.220361,0 -0.391753,-0.177513 -0.391753,-0.599871 0,-0.838596 0.483571,-1.66495 1.083442,-1.66495 0.140786,0 0.355026,0.03061 0.575387,0.09794 -0.09182,0.465207 -0.257087,1.303803 -0.318299,1.615981 -0.299936,0.299936 -0.691689,0.550902 -0.948777,0.550902 z m 1.958765,0.15915 -0.04897,-0.244845 c -0.575387,0.214239 -0.612114,0.116301 -0.526418,-0.306057 l 0.422359,-2.154642 c -0.312178,-0.0857 -0.599872,-0.128544 -0.85696,-0.128544 -1.083442,0 -1.8241,1.065079 -1.8241,2.185247 0,0.630478 0.269331,0.936535 0.636599,0.936535 0.342784,0 0.777385,-0.287694 1.138532,-0.64272 -0.07345,0.630477 0.165271,0.881444 1.058957,0.355026 z"
           style="font-style:italic;font-weight:300;font-family:'Operator Mono Lig';-inkscape-font-specification:'Operator Mono Lig weight=325 Italic';fill:#4d4d4d"
           id="path883" />
        <path
           d="m 102.2384,33.317832 -0.049,-0.250967 c -1.27931,0.434601 -1.48743,0.201998 -1.3344,-0.465206 l 0.35502,-1.579254 h 1.16914 l 0.0735,-0.37339 h -1.15689 l 0.19587,-0.875323 -0.36726,0.03061 -0.47133,0.844717 h -0.38563 l -0.0979,0.37339 h 0.56926 l -0.35502,1.603738 c -0.22648,0.979383 0.29381,1.481316 1.8547,0.691689 z"
           style="font-style:italic;font-weight:300;font-family:'Operator Mono Lig';-inkscape-font-specification:'Operator Mono Lig weight=325 Italic';fill:#4d4d4d"
           id="path885" />
        <path
           d="m 105.67236,33.293347 -0.0612,-0.250966 c -1.3895,0.459085 -1.97101,0.257088 -1.97101,-0.532539 v -0.0061 c 1.40786,-0.104059 2.19749,-0.526418 2.19749,-1.224228 0,-0.440722 -0.32442,-0.716173 -0.85084,-0.716173 -1.03447,0 -1.81186,1.058957 -1.81186,2.007734 0,1.003867 0.86921,1.554769 2.49743,0.722294 z m -0.80187,-2.332154 c 0.31218,0 0.50805,0.165271 0.50805,0.410116 0,0.501934 -0.67332,0.777385 -1.71391,0.850839 0.10405,-0.636599 0.55702,-1.260955 1.20586,-1.260955 z"
           style="font-style:italic;font-weight:300;font-family:'Operator Mono Lig';-inkscape-font-specification:'Operator Mono Lig weight=325 Italic';fill:#4d4d4d"
           id="path887" />
      </g>
    </g>
    <g
       aria-label="RT "
       id="text4008"
       style="font-size:42.1932px;line-height:1.25;fill:#345f83;fill-opacity:0.870588;stroke-width:1.05483"
       transform="matrix(0.4956447,0,0,0.4956447,1.8767473,10.49191)">
      <path
         d="M 19.36778,31.608766 24.557543,30.975868 18.397336,19.66809 c 2.447206,-1.772114 4.261513,-4.050547 4.261513,-7.341616 0,-5.4429231 -4.050547,-8.9027655 -17.0038589,-7.2150375 V 31.229027 h 4.7678319 v -9.029345 l 4.134933,-0.08439 z M 10.422822,8.7822448 c 5.105377,-0.6750911 7.468196,1.1392164 7.468196,4.5990592 0,2.278432 -1.139217,4.134933 -2.869138,5.316343 l -4.599058,0.126579 z"
         style="font-family:'Operator Mono Lig';-inkscape-font-specification:'Operator Mono Lig';fill:#345f83;fill-opacity:0.870588"
         id="path12858" />
      <path
         d="m 39.536098,9.1197904 h 7.468196 V 5.0692433 H 27.30007 l -0.337546,4.0505471 h 7.679163 V 31.229027 h 4.894411 z"
         style="font-family:'Operator Mono Lig';-inkscape-font-specification:'Operator Mono Lig';fill:#345f83;fill-opacity:0.870588"
         id="path12860" />
    </g>
  </g>
</svg>
